<svg xmlns="http://www.w3.org/2000/svg" version="1.1" xmlns:xlink="http://www.w3.org/1999/xlink" xmlns:svgjs="http://svgjs.com/svgjs" width="1440" height="300" preserveAspectRatio="none" viewBox="0 0 1440 300"><g mask="url(&quot;#SvgjsMask1169&quot;)" fill="none"><path d="M 0,3 C 48,21.4 144,93.4 240,95 C 336,96.6 384,8 480,11 C 576,14 624,107.8 720,110 C 816,112.2 864,24.2 960,22 C 1056,19.8 1104,92.4 1200,99 C 1296,105.6 1392,63.8 1440,55L1440 300L0 300z" fill="rgba(255, 235, 205, 1)"></path><path d="M 0,175 C 72,198.6 216,296.4 360,293 C 504,289.6 576,166.4 720,158 C 864,149.6 936,246.4 1080,251 C 1224,255.6 1368,195 1440,181L1440 300L0 300z" fill="rgba(156, 88, 63, 1)"></path></g><defs><mask id="SvgjsMask1169"><rect width="1440" height="300" fill="#ffffff"></rect></mask></defs></svg>