<svg xmlns="http://www.w3.org/2000/svg" version="1.1" xmlns:xlink="http://www.w3.org/1999/xlink" xmlns:svgjs="http://svgjs.com/svgjs" width="1440" height="300" preserveAspectRatio="none" viewBox="0 0 1440 300"><g mask="url(&quot;#SvgjsMask1002&quot;)" fill="none"><path d="M 0,79 C 48,71.6 144,30.6 240,42 C 336,53.4 384,140.2 480,136 C 576,131.8 624,23.2 720,21 C 816,18.8 864,124.6 960,125 C 1056,125.4 1104,29.2 1200,23 C 1296,16.8 1392,79.8 1440,94L1440 300L0 300z" fill="rgba(255, 235, 205, 1)"></path><path d="M 0,168 C 72,194.2 216,296.4 360,299 C 504,301.6 576,181.6 720,181 C 864,180.4 936,289.8 1080,296 C 1224,302.2 1368,228.8 1440,212L1440 300L0 300z" fill="rgba(156, 88, 63, 1)"></path></g><defs><mask id="SvgjsMask1002"><rect width="1440" height="300" fill="#ffffff"></rect></mask></defs></svg>